# xmcd CD database file
#
# Track frame offsets:
#	150
#	14418
#	29506
#	44079
#	57845
#	70736
#	84998
#	98473
#	114565
#	127391
#	141361
#	156272
#	174069
#	190095
#	204272
#	218200
#
# Disc length: 3096 seconds
#
# Revision: 0
# Processed by: cddbd v1.5PL3 Copyright (c) Steve Scherf et al.
# Submitted via: CDex 1.50beta10
#
DISCID=df0c1610
DTITLE=5／4TAKEPOD - Alice Prizm 3
DYEAR=2004
DGENRE=Game
TTITLE0=Holly Frame -color of a dead moth- -大番長-
TTITLE1=Scal Serpent -new age of apparatus- -大番長-
TTITLE2=Weeping Cause -the red wing inside us- -アトラク=ナクア-
TTITLE3=Red tint -the grapes of wrath- -アトラク=ナクア-
TTITLE4=Influence -NEXT- -鬼畜王ランス-
TTITLE5=The blue moon -but little purple- -夜が来る!-
TTITLE6=がんばれ悪司 -smash the pluck- -大悪司-
TTITLE7=World -milk in the core- -アトラク=ナクア-
TTITLE8=The 3rd stage -useless and hopeless- -零式-
TTITLE9=楽園の夢想 -thanks for the knell- -シェル･クレイル-
TTITLE10=Ontology -anonymous fingers- -鬼畜王ランス-
TTITLE11=One feather -ARUKU- -Only You リ･クルス-
TTITLE12=Gokokuin -delicate position of power- -大番長-
TTITLE13=Moon Walk -oher side of the water- -ランス5D-
TTITLE14=Diving into the dungeon -never yourself- -ぱすてるチャイム-
TTITLE15=Alice's Theme -TAKEPOD subliminal- -アリスソフト-
EXTD=YEAR: 2004
EXTT0=
EXTT1=
EXTT2=
EXTT3=
EXTT4=
EXTT5=
EXTT6=
EXTT7=
EXTT8=
EXTT9=
EXTT10=
EXTT11=
EXTT12=
EXTT13=
EXTT14=
EXTT15=
PLAYORDER=
